<svg width="37" height="37" viewBox="0 0 37 37" fill="none" xmlns="http://www.w3.org/2000/svg">
<path d="M21.5835 3.08325C21.5835 3.08325 24.9752 3.39159 29.2918 7.70825C33.6085 12.0249 33.9168 15.4166 33.9168 15.4166" stroke="#0077B6" stroke-width="1.75" stroke-linecap="round"/>
<path d="M21.9023 8.53418C21.9023 8.53418 23.4286 8.97024 25.7178 11.2595C28.007 13.5488 28.4432 15.0749 28.4432 15.0749" stroke="#0077B6" stroke-width="1.75" stroke-linecap="round"/>
<path d="M6.17661 12.2303C6.06508 15.172 6.80958 20.1677 11.8209 25.179C13.0299 26.388 14.2379 27.3486 15.4165 28.1088M8.5373 7.61164C10.6848 5.46418 14.111 5.75272 15.4745 8.19584L16.475 9.98869C17.378 11.6066 17.0155 13.7291 15.5933 15.1513C15.5933 15.1513 13.8685 16.8764 16.9959 20.004C20.1224 23.1305 21.8486 21.4066 21.8486 21.4066C23.2708 19.9844 25.3932 19.622 27.0112 20.5249L28.804 21.5254C31.2473 22.8889 31.5357 26.3151 29.3883 28.4626C28.0979 29.753 26.5171 30.7571 24.7696 30.8232C23.5147 30.8709 21.8858 30.7627 20.0415 30.2339" stroke="#0077B6" stroke-width="1.75" stroke-linecap="round"/>
</svg>
