<svg width="38" height="26" viewBox="0 0 38 26" fill="none" xmlns="http://www.w3.org/2000/svg">
<path d="M33.3735 4.71372L19.0002 14.8112L4.62682 4.71372M2.93099 1.37122C2.44476 1.37122 1.97844 1.5556 1.63463 1.88378C1.29081 2.21197 1.09766 2.65709 1.09766 3.12122V22.905C1.09766 23.3691 1.29081 23.8142 1.63463 24.1424C1.97844 24.4706 2.44476 24.655 2.93099 24.655H35.0693C35.5555 24.655 36.0219 24.4706 36.3657 24.1424C36.7095 23.8142 36.9027 23.3691 36.9027 22.905V3.09497C36.9027 2.63084 36.7095 2.18572 36.3657 1.85753C36.0219 1.52934 35.5555 1.34497 35.0693 1.34497H2.93099V1.37122Z" stroke="#0077B6" stroke-width="1.25" stroke-linecap="round" stroke-linejoin="round"/>
</svg>
