<svg width="18" height="18" viewBox="0 0 18 18" fill="none" xmlns="http://www.w3.org/2000/svg">
<path d="M17.5714 0.430664C17.5714 0.430664 16.007 0.436664 15.1805 1.08586C15.2658 1.30067 15.332 1.52835 15.3529 1.77553C15.3746 1.91383 15.3996 2.23302 15.3415 2.68361C15.4842 2.66816 15.6297 2.66062 15.7783 2.66062C15.9813 2.66062 16.1366 2.67552 16.2036 2.68361C16.45 2.70163 16.6892 2.77216 16.9048 2.85602C17.5753 2.03761 17.5714 0.430664 17.5714 0.430664ZM14.0655 0.626073C13.5039 0.725758 12.7235 1.41754 12.4333 2.22382C12.7585 2.5567 13.1049 3.0267 13.2954 3.63766C13.341 3.78332 13.3682 3.93293 13.3874 4.08595L14.5598 2.9135C14.5638 2.89217 14.5672 2.87735 14.5712 2.85603C14.6974 2.23219 14.6172 1.86749 14.6172 1.86749C14.58 1.24218 14.0655 0.626073 14.0655 0.626073ZM11.3528 2.28129C10.9585 2.49206 10.5268 3.11212 10.3528 3.78709C10.7283 4.11077 11.2458 4.66996 11.4907 5.4538C11.536 5.59946 11.5636 5.74908 11.5827 5.90209L12.6402 4.84459C12.7042 4.5301 12.6972 4.18379 12.5942 3.85605C12.2786 2.84563 11.3528 2.28129 11.3528 2.28129ZM15.8012 3.39627C15.5993 3.3953 15.3273 3.41668 15.0426 3.48823L13.9506 4.58021C14.019 4.59236 14.0802 4.5963 14.146 4.6147C14.7768 4.7725 15.3894 5.17168 15.8242 5.59174C16.6132 5.29012 17.2792 4.52348 17.376 3.971C17.376 3.971 16.7599 3.45604 16.1346 3.41926C16.1346 3.41926 16.0032 3.39723 15.8012 3.39627ZM9.53666 4.08595C9.16663 4.28347 8.76239 4.85075 8.57112 5.47679C8.94961 5.79349 9.49979 6.36142 9.75506 7.17799C9.80067 7.32365 9.82789 7.48476 9.84702 7.63778L10.8241 6.66074C10.8877 6.34624 10.8918 6.0003 10.7896 5.6722C10.474 4.66178 9.53666 4.08595 9.53666 4.08595ZM13.5943 5.26989C13.4696 5.26646 13.3396 5.28232 13.2149 5.30438L12.1459 6.38487C12.3048 6.40841 12.4504 6.44317 12.5942 6.49981C13.132 6.71094 13.7652 7.19151 14.1805 7.62628C14.8694 7.45892 15.5063 7.01642 15.7208 6.61476C15.7208 6.61439 15.0472 5.59293 13.9621 5.32736C13.8438 5.29352 13.7189 5.27339 13.5943 5.26989ZM7.80098 5.82163C7.42175 6.02393 7.02118 6.61402 6.83543 7.25845C7.21319 7.57773 7.74479 8.14446 7.99639 8.94816C8.04236 9.09382 8.06885 9.24307 8.08834 9.39645L9.09987 8.38492C9.16387 8.0708 9.15614 7.73599 9.05389 7.40788C8.73829 6.39746 7.80098 5.82163 7.80098 5.82163ZM11.8701 7.08604C11.7112 7.07946 11.5471 7.09775 11.3873 7.13201L10.4103 8.10905C10.5692 8.13259 10.7262 8.16735 10.87 8.22399C11.4284 8.44322 12.077 8.94953 12.4908 9.39644C13.1282 9.20848 13.7041 8.80644 13.9046 8.43089C13.905 8.43053 13.1987 7.51933 12.3298 7.17798C12.1858 7.12134 12.029 7.09266 11.8701 7.08604ZM6.0423 7.5803C5.65976 7.78445 5.24844 8.3772 5.06526 9.02862C5.44265 9.349 5.97573 9.91794 6.22622 10.7183C6.27183 10.864 6.29905 11.0136 6.31817 11.1666L7.34119 10.1436C7.40556 9.82874 7.39821 9.49503 7.29522 9.16656C6.97925 8.15577 6.0423 7.5803 6.0423 7.5803ZM9.90449 8.82172C9.82393 8.82915 9.74301 8.85059 9.6631 8.86769L8.65158 9.86772C8.81085 9.89126 8.96754 9.92602 9.11136 9.98266C9.81134 10.2574 10.3918 10.7945 10.7206 11.1436C11.3775 10.9623 11.9752 10.5521 12.1804 10.1666C12.1812 10.1666 11.463 9.25501 10.5942 8.91366C10.3782 8.82869 10.1462 8.7993 9.90449 8.82172ZM4.27214 9.35047C3.7204 9.64473 3.09242 10.7528 3.20314 11.6724C3.35421 12.6106 3.87705 13.0751 4.28363 13.1897L0.536393 16.9484C0.392573 17.0926 0.392573 17.3215 0.536393 17.4657C0.608119 17.537 0.706605 17.5691 0.800769 17.5691C0.894565 17.5691 0.981924 17.5374 1.05365 17.4657L4.82388 13.7069C4.95033 14.1178 5.41045 14.6455 6.32967 14.7644C7.24924 14.8744 8.35732 14.2472 8.65158 13.6954C8.65158 13.6951 7.93413 12.7839 7.06532 12.4425C6.77731 12.3292 6.44278 12.3289 6.12277 12.3965L4.83537 13.6839V13.1667H4.31811L5.55953 11.9138C5.62353 11.5993 5.62767 11.2652 5.52505 10.9367C5.20908 9.9263 4.27214 9.35047 4.27214 9.35047ZM8.14582 10.5804C8.06533 10.5878 7.98434 10.6094 7.90443 10.6264L6.88141 11.6494C7.04031 11.6729 7.18588 11.7077 7.3297 11.7643C7.75895 11.9328 8.47769 12.4224 8.93894 12.9138C9.60434 12.7361 10.2139 12.3151 10.4217 11.9253C10.4217 11.9253 9.7043 11.0137 8.83549 10.6723C8.61948 10.5871 8.38727 10.5581 8.14582 10.5804Z" fill="url(#paint0_linear_253_9851)"/>
<defs>
<linearGradient id="paint0_linear_253_9851" x1="8.98506" y1="0.430664" x2="8.60895" y2="26.7452" gradientUnits="userSpaceOnUse">
<stop stop-color="#12602F"/>
<stop offset="1" stop-color="#6FAC2C"/>
</linearGradient>
</defs>
</svg>
