<svg width="17" height="13" viewBox="0 0 17 13" fill="none" xmlns="http://www.w3.org/2000/svg">
<path d="M14.1678 0.125H12.75V2.95723H14.1678V0.125ZM4.25 0.125H2.83223V2.95723H4.25V0.125ZM15.5822 1.54277H14.875V3.66777H12.0428V1.54277H4.95723V3.66777H2.125V1.54277H1.41777C0.63418 1.54277 0 2.17695 0 2.95723V11.4572C0 12.2408 0.63418 12.875 1.41777 12.875H15.5855C16.3658 12.875 17.0033 12.2408 17.0033 11.4572V2.95723C17 2.17695 16.3658 1.54277 15.5822 1.54277ZM6.375 10.75H1.41777V5.79277H6.375V10.75ZM11.3322 10.0428H7.79277V8.625H11.3355V10.0428H11.3322ZM15.5822 7.91777H7.79277V6.5H15.5855V7.91777H15.5822Z" fill="url(#paint0_linear_253_9853)"/>
<defs>
<linearGradient id="paint0_linear_253_9853" x1="8.48685" y1="0.125" x2="8.27696" y2="19.7032" gradientUnits="userSpaceOnUse">
<stop stop-color="#12602F"/>
<stop offset="1" stop-color="#6FAC2C"/>
</linearGradient>
</defs>
</svg>
