<svg width="245" height="380" viewBox="0 0 245 380" fill="none" xmlns="http://www.w3.org/2000/svg">
<g opacity="0.26">
<path d="M29.9502 292.451L28.0104 292.984C8.91639 298.234 0.890839 321.63 13.6328 336.808C14.0132 337.265 14.4062 337.709 14.8119 338.14C24.7773 348.602 41.0566 349.515 52.1251 340.651L60.9874 349.933L68.3664 342.895L56.3851 330.303C54.2551 328.097 50.7558 327.983 48.5117 330.113L46.8761 331.673C40.0677 338.216 29.1895 338.178 22.5712 331.445C4.80853 313.489 29.9502 292.451 29.9502 292.451Z" fill="white" stroke="#90E0EF" stroke-width="2" stroke-linecap="round" stroke-linejoin="round"/>
<path d="M56.9936 338.33C54.8255 340.384 54.7495 343.808 56.8034 345.977L86.5094 377.133C88.5633 379.302 91.9865 379.378 94.1545 377.323C96.3226 375.269 96.3987 371.845 94.3447 369.677L64.6388 338.52C62.5468 336.352 59.1616 336.276 56.9936 338.33Z" fill="white" stroke="#90E0EF" stroke-width="2" stroke-linecap="round" stroke-linejoin="round"/>
<path d="M74.6422 339.32L67.6436 331.977C66.5786 330.874 64.829 330.836 63.7259 331.901L50.6796 344.341C49.5766 345.406 49.5386 347.156 50.5655 348.259L57.5641 355.602C58.6291 356.705 60.3788 356.743 61.4818 355.678L74.5281 343.238C75.6311 342.173 75.6692 340.423 74.6422 339.32Z" fill="white" stroke="#90E0EF" stroke-width="2" stroke-linecap="round" stroke-linejoin="round"/>
<path d="M79.4288 50.0998L79.9993 41.9968L72.3161 44.6978C60.7913 48.8063 50.7118 56.1485 43.3328 65.8873L36.068 75.4359C34.4705 77.5662 34.8889 80.5716 37.0189 82.1693L52.8418 94.1907C54.9337 95.7884 57.9386 95.37 59.5741 93.2777L66.8009 83.691C74.2179 73.9903 78.592 62.3113 79.4288 50.0998Z" fill="white" stroke="#90E0EF" stroke-width="2" stroke-linecap="round" stroke-linejoin="round"/>
<path d="M38.9587 99.821L35.3073 97.0819L45.5389 83.5769L49.1903 86.354L38.9587 99.821Z" fill="white" stroke="#90E0EF" stroke-width="2" stroke-linecap="round" stroke-linejoin="round"/>
<path d="M44.5118 96.6632L36.8667 90.8808L15.6427 116.255C13.3225 119.032 13.7789 123.217 16.6696 125.385C19.5604 127.592 23.7063 126.907 25.7602 123.939L44.5118 96.6632Z" fill="white" stroke="#90E0EF" stroke-width="2" stroke-linecap="round" stroke-linejoin="round"/>
<path d="M39.8716 103.397L44.5119 96.6632L36.8667 90.8808L31.6178 97.1578L39.8716 103.397Z" fill="white" stroke="#90E0EF" stroke-width="2" stroke-linecap="round" stroke-linejoin="round"/>
<mask id="mask0_253_9110" style="mask-type:luminance" maskUnits="userSpaceOnUse" x="8" y="194" width="30" height="56">
<path d="M9.23316 241.394C8.39257 238.75 8.76912 235.878 9.37389 233.169C12.2418 220.292 19.8908 209.073 27.38 198.212C28.1598 197.079 28.9623 195.926 30.0578 195.093C31.1532 194.264 32.6176 193.796 33.9298 194.214C35.1736 194.61 36.075 195.74 36.5162 196.968C36.9575 198.193 37.0069 199.525 37.0297 200.83C37.2465 214.696 34.7324 228.616 29.5215 241.466C28.833 243.174 28.0799 244.883 26.9426 246.332C25.8054 247.778 24.2307 248.957 22.4164 249.273C19.5599 249.767 17.099 248.128 14.7522 246.773C12.3027 245.354 10.1612 244.312 9.23316 241.394Z" fill="white"/>
</mask>
<g mask="url(#mask0_253_9110)">
<path d="M36.2006 188.645C23.0782 208.047 13.3791 229.769 7.74982 252.518" stroke="#90E0EF" stroke-width="2" stroke-linecap="round" stroke-linejoin="round"/>
<path d="M36.2765 192.259C30.3937 214.653 24.5235 237.035 18.666 259.403" stroke="#90E0EF" stroke-width="2" stroke-linecap="round" stroke-linejoin="round"/>
<path d="M22.1653 194.96C31.2558 196.9 40.1182 199.753 48.6382 203.52" stroke="#90E0EF" stroke-width="2" stroke-linecap="round" stroke-linejoin="round"/>
<path d="M17.2968 200.59C29.24 201.77 40.9931 205.003 51.9093 210.101" stroke="#90E0EF" stroke-width="2" stroke-linecap="round" stroke-linejoin="round"/>
<path d="M13.6453 207.704C27.148 206.753 40.955 210.671 51.9473 218.622" stroke="#90E0EF" stroke-width="2" stroke-linecap="round" stroke-linejoin="round"/>
<path d="M9.84167 211.128C22.8246 214.374 35.8075 217.62 48.7903 220.867" stroke="#90E0EF" stroke-width="2" stroke-linecap="round" stroke-linejoin="round"/>
<path d="M6.49463 217.747C21.1004 220.207 35.7061 222.667 50.3119 225.127" stroke="#90E0EF" stroke-width="2" stroke-linecap="round" stroke-linejoin="round"/>
<path d="M3.07135 223.492C18.59 228.779 34.603 232.66 50.8443 235.094" stroke="#90E0EF" stroke-width="2" stroke-linecap="round" stroke-linejoin="round"/>
<path d="M1.8161 229.008C14.9765 235.437 29.316 239.355 43.9217 240.458" stroke="#90E0EF" stroke-width="2" stroke-linecap="round" stroke-linejoin="round"/>
<path d="M9.23314 241.409C8.39635 238.746 8.77671 235.893 9.38528 233.154C12.238 220.296 19.8832 209.073 27.3762 198.193C28.175 197.09 28.9737 195.911 30.0387 195.112C31.1418 194.275 32.6252 193.78 33.9184 194.199C35.1736 194.617 36.0864 195.721 36.5048 196.976C36.9612 198.193 36.9993 199.525 37.0373 200.818C37.2655 214.704 34.7171 228.627 29.5062 241.485C28.8216 243.159 28.0989 244.871 26.9578 246.317C25.8167 247.762 24.2192 248.942 22.4316 249.284C19.5789 249.779 17.1065 248.143 14.7483 246.773C12.314 245.366 10.146 244.3 9.23314 241.409Z" fill="white" stroke="#90E0EF" stroke-width="2" stroke-linecap="round" stroke-linejoin="round"/>
</g>
<path d="M17.1447 249.056C17.1827 246.583 16.8024 244.148 15.5472 241.828C14.292 239.469 13.5693 236.958 12.2 234.638C10.5265 231.861 8.32039 229.464 6.68485 226.725C4.74502 223.377 3.71805 219.535 3.71805 215.655C0.446973 220.448 -0.770173 226.611 0.485009 232.279C1.70215 237.871 5.12538 242.627 8.70074 246.963C9.34735 247.8 11.0209 250.349 12.6184 251.262C11.6675 252.784 10.8307 254.382 9.91789 255.903C9.65164 256.36 9.38539 256.816 9.46146 257.349C9.53753 258.034 10.2982 258.49 10.9449 258.719C12.5043 259.289 14.1399 259.555 15.7754 259.403C16.2699 256.018 17.1067 252.48 17.1447 249.056Z" fill="white" stroke="#90E0EF" stroke-width="2" stroke-linecap="round" stroke-linejoin="round"/>
<path d="M19.3889 239.812C19.9721 239.355 20.5933 238.911 21.2526 238.48C24.6758 236.223 28.1117 233.966 31.5603 231.709C35.5921 229.046 39.738 226.269 42.3625 222.198C41.6398 223.339 42.0202 225.546 41.9061 226.877C41.7032 228.678 41.3862 230.466 40.9552 232.241C39.2436 239.051 35.9344 246.621 29.8868 250.654C26.3114 252.974 21.633 254.154 17.449 253.012C13.9497 252.023 14.0639 248.904 15.0528 245.974C16.0037 243.235 17.411 241.409 19.3889 239.812Z" fill="white" stroke="#90E0EF" stroke-width="2" stroke-linecap="round" stroke-linejoin="round"/>
<path d="M138.083 55.8947C138.083 57.987 136.409 59.6609 134.355 59.6609C132.263 59.6609 130.589 57.987 130.589 55.8947C130.589 53.8404 132.263 52.1285 134.355 52.1285C136.409 52.1285 138.083 53.8404 138.083 55.8947Z" fill="white" stroke="#90E0EF" stroke-width="2" stroke-linecap="round" stroke-linejoin="round"/>
<path d="M80.154 3.47274C80.154 4.80422 79.051 5.90744 77.7198 5.90744C76.3505 5.90744 75.2855 4.80422 75.2855 3.47274C75.2855 2.10322 76.3505 1 77.7198 1C79.051 1 80.154 2.10322 80.154 3.47274Z" fill="white" stroke="#90E0EF" stroke-width="2" stroke-linecap="round" stroke-linejoin="round"/>
<path d="M99.8833 271.653C99.8833 274.468 97.6392 276.751 94.8246 276.751C92.0099 276.751 89.7278 274.468 89.7278 271.653C89.7278 268.838 92.0099 266.593 94.8246 266.593C97.6392 266.593 99.8833 268.838 99.8833 271.653Z" fill="white" stroke="#90E0EF" stroke-width="2" stroke-linecap="round" stroke-linejoin="round"/>
<path d="M148.721 339.064C148.721 341.08 147.086 342.754 145.032 342.754C143.016 342.754 141.38 341.08 141.38 339.064C141.38 337.047 143.016 335.374 145.032 335.374C147.086 335.374 148.721 337.047 148.721 339.064Z" fill="white" stroke="#90E0EF" stroke-width="2" stroke-linecap="round" stroke-linejoin="round"/>
<path d="M194.402 366.796C192.957 366.378 191.816 365.236 191.397 363.753L190.485 360.633L189.534 363.867C189.115 365.313 187.936 366.454 186.453 366.872L183.486 367.671L186.605 368.546C188.05 368.965 189.191 370.106 189.61 371.59L190.485 374.709L191.397 371.59C191.816 370.106 192.957 368.965 194.402 368.546L197.521 367.671L194.402 366.796Z" fill="white" stroke="#90E0EF" stroke-width="2" stroke-linecap="round" stroke-linejoin="round"/>
<path d="M61.2674 159.451C61.2674 162.114 59.0993 164.32 56.3988 164.32C53.6982 164.32 51.5302 162.114 51.5302 159.451C51.5302 156.75 53.6982 154.543 56.3988 154.543C59.0993 154.543 61.2674 156.75 61.2674 159.451Z" fill="white" stroke="#90E0EF" stroke-width="2" stroke-linecap="round" stroke-linejoin="round"/>
<path d="M118.625 135.979C118.625 137.234 117.598 138.261 116.343 138.261C115.05 138.261 114.023 137.234 114.023 135.979C114.023 134.685 115.05 133.658 116.343 133.658C117.598 133.658 118.625 134.685 118.625 135.979Z" fill="white" stroke="#90E0EF" stroke-width="2" stroke-linecap="round" stroke-linejoin="round"/>
<path d="M16.9174 163.597C15.4341 163.179 14.293 162.038 13.8746 160.554L12.9998 157.473L12.0489 160.668C11.5924 162.152 10.4514 163.293 8.96796 163.674L5.96313 164.472L9.08207 165.385C10.5655 165.804 11.7065 166.945 12.1249 168.391L12.9998 171.51L13.8746 168.391C14.293 166.945 15.4341 165.804 16.9174 165.385L20.0364 164.472L16.9174 163.597Z" fill="white" stroke="#90E0EF" stroke-width="2" stroke-linecap="round" stroke-linejoin="round"/>
<path d="M77.0522 109.083C87.9305 117.985 94.0542 132.403 92.9512 146.44C91.8482 160.478 83.5183 173.755 71.3849 180.869" stroke="#90E0EF" stroke-width="2" stroke-linecap="round" stroke-linejoin="round" stroke-dasharray="16 16"/>
<path d="M148.493 353.938C160.322 342.335 179.378 338.912 194.516 345.569C202.884 349.297 209.769 355.574 217.642 360.253C225.478 364.894 235.367 367.824 243.697 364.058" stroke="#90E0EF" stroke-width="2" stroke-linecap="round" stroke-linejoin="round" stroke-dasharray="16 16"/>
</g>
</svg>
