<svg width="217" height="376" viewBox="0 0 217 376" fill="none" xmlns="http://www.w3.org/2000/svg">
<g opacity="0.26">
<path d="M108.665 292.322C106.648 292.322 104.913 293.815 104.63 295.833L104.267 298.214H147.035L146.834 296.075C146.672 293.977 144.897 292.322 142.759 292.322H108.665Z" fill="white" stroke="#90E0EF" stroke-width="2" stroke-linecap="round" stroke-linejoin="round"/>
<path d="M90.6298 321.902C89.5001 321.902 88.5721 320.974 88.5721 319.844V309.513C88.5721 309.15 88.2493 308.827 87.8459 308.827H85.6671C84.497 308.827 83.6094 307.899 83.6094 306.769C83.6094 305.639 84.497 304.711 85.6671 304.711H87.8459C90.5088 304.711 92.6472 306.89 92.6472 309.513V319.844C92.6472 320.974 91.7596 321.902 90.6298 321.902Z" fill="white" stroke="#90E0EF" stroke-width="2" stroke-linecap="round" stroke-linejoin="round"/>
<path d="M94.14 334.371H86.8774V315.93H94.14V334.371Z" fill="white" stroke="#90E0EF" stroke-width="2" stroke-linecap="round" stroke-linejoin="round"/>
<path d="M56.8993 330.699C52.5418 331.183 49.2737 334.896 49.2737 339.254V365.444H144.413V320.368L56.8993 330.699Z" fill="white" stroke="#90E0EF" stroke-width="2" stroke-linecap="round" stroke-linejoin="round"/>
<path d="M157.566 358.019H49.9192C47.2966 358.019 45.1582 360.158 45.1582 362.781C45.1582 365.404 47.2966 367.543 49.9192 367.543H157.566C160.189 367.543 162.327 365.404 162.327 362.781C162.327 360.158 160.189 358.019 157.566 358.019Z" fill="white" stroke="#90E0EF" stroke-width="2" stroke-linecap="round" stroke-linejoin="round"/>
<path d="M146.834 296.075C146.672 293.977 144.897 292.322 142.759 292.322H108.665C106.648 292.322 104.913 293.815 104.63 295.833L96.8433 347.365H151.111L146.834 296.075Z" fill="white" stroke="#90E0EF" stroke-width="2" stroke-linecap="round" stroke-linejoin="round"/>
<path d="M142.759 292.322H129.525V347.365H151.111L146.834 296.075C146.672 293.977 144.897 292.322 142.759 292.322Z" fill="white" stroke="#90E0EF" stroke-width="2" stroke-linecap="round" stroke-linejoin="round"/>
<path d="M94.9066 358.019C94.9066 346.276 85.3443 336.712 73.5628 336.712C61.7814 336.712 52.2594 346.276 52.2594 358.019H94.9066Z" fill="white" stroke="#90E0EF" stroke-width="2" stroke-linecap="round" stroke-linejoin="round"/>
<path d="M90.5087 358.019C90.5087 367.381 82.9233 375.008 73.5627 375.008C64.2021 375.008 56.6168 367.381 56.6168 358.019C56.6168 348.657 64.2021 341.07 73.5627 341.07C82.9233 341.07 90.5087 348.657 90.5087 358.019Z" fill="white" stroke="#90E0EF" stroke-width="2" stroke-linecap="round" stroke-linejoin="round"/>
<path d="M81.834 358.019C81.834 362.579 78.122 366.292 73.5628 366.292C69.0035 366.292 65.3319 362.579 65.3319 358.019C65.3319 353.499 69.0035 349.787 73.5628 349.787C78.122 349.787 81.834 353.499 81.834 358.019Z" fill="white" stroke="#90E0EF" stroke-width="2" stroke-linecap="round" stroke-linejoin="round"/>
<path d="M130.897 325.171C115.443 325.171 102.895 337.721 102.895 353.176V358.019H158.938V353.176C158.938 337.721 146.39 325.171 130.897 325.171Z" fill="white" stroke="#90E0EF" stroke-width="2" stroke-linecap="round" stroke-linejoin="round"/>
<path d="M153.612 352.289C153.612 364.839 143.445 375.008 130.896 375.008C118.389 375.008 108.221 364.839 108.221 352.289C108.221 339.738 118.389 329.609 130.896 329.609C143.445 329.609 153.612 339.738 153.612 352.289Z" fill="white" stroke="#90E0EF" stroke-width="2" stroke-linecap="round" stroke-linejoin="round"/>
<path d="M141.952 352.289C141.952 358.382 136.989 363.346 130.897 363.346C124.804 363.346 119.882 358.382 119.882 352.289C119.882 346.195 124.804 341.272 130.897 341.272C136.989 341.272 141.952 346.195 141.952 352.289Z" fill="white" stroke="#90E0EF" stroke-width="2" stroke-linecap="round" stroke-linejoin="round"/>
<path d="M96.8433 347.365V358.019Z" fill="white"/>
<path d="M96.8433 347.365V358.019" stroke="#90E0EF" stroke-width="2" stroke-linecap="round" stroke-linejoin="round"/>
<path d="M56.8993 330.699C52.5418 331.183 49.2737 334.896 49.2737 339.254V341.272H54.8013C56.1731 341.272 57.2625 340.142 57.2625 338.77V330.618L56.8993 330.699Z" fill="white" stroke="#90E0EF" stroke-width="2" stroke-linecap="round" stroke-linejoin="round"/>
<path d="M221.533 198.396C221.009 199.526 220.565 200.454 220.484 200.656C220.04 201.665 219.274 204.127 218.225 204.651C217.741 204.853 217.095 204.772 216.732 204.409C217.458 201.423 218.198 198.45 218.951 195.491C219.153 194.643 219.435 193.715 220.202 193.312C221.17 192.828 222.26 193.433 223.147 193.998C223.389 194.119 222.381 196.5 221.533 198.396Z" fill="white" stroke="#90E0EF" stroke-width="2" stroke-linecap="round" stroke-linejoin="round"/>
<path d="M234.445 196.903C235.009 196.903 235.695 197.024 235.857 197.549C235.978 197.912 235.776 198.316 235.574 198.639C233.718 201.584 230.813 203.885 227.505 205.055C226.214 205.499 216.571 206.831 217.741 203.965C218.346 202.513 221.049 201.02 222.34 200.253C224.035 199.204 225.851 198.396 227.747 197.832C229.926 197.186 232.185 196.863 234.445 196.903Z" fill="white" stroke="#90E0EF" stroke-width="2" stroke-linecap="round" stroke-linejoin="round"/>
<path d="M221.614 212.399C222.3 210.059 224.398 204.732 220.646 203.965C219.758 203.763 218.79 204.006 218.063 203.521C217.257 203.037 216.974 201.947 216.127 201.625C215.32 201.342 214.432 201.907 213.787 202.432C211.043 204.611 208.259 206.871 205.596 209.131C203.256 211.148 200.19 212.319 197.648 214.215C195.63 215.749 193.613 217.565 192.806 219.986C191.999 222.407 192.766 225.555 195.106 226.604C196.76 227.371 198.818 226.967 200.351 227.976C201.44 228.702 201.965 229.994 202.812 230.962C203.982 232.294 205.757 233.101 207.533 233.101C208.34 233.061 209.187 232.899 209.994 233.182C211.285 233.626 211.931 235.119 213.101 235.845C214.513 236.733 216.45 236.289 217.741 235.24C219.516 233.827 220.847 231.446 221.09 229.187C221.291 227.048 220.807 224.869 220.565 222.69C220.242 219.219 220.565 215.708 221.614 212.399Z" fill="white" stroke="#90E0EF" stroke-width="2" stroke-linecap="round" stroke-linejoin="round"/>
<path d="M201.037 225.03C203.054 219.865 206.201 215.184 210.196 211.35Z" fill="white"/>
<path d="M201.037 225.03C203.054 219.865 206.201 215.184 210.196 211.35" stroke="#90E0EF" stroke-width="2" stroke-linecap="round" stroke-linejoin="round"/>
<path d="M215.643 213.408C214.997 219.098 213.302 224.707 210.72 229.792Z" fill="white"/>
<path d="M215.643 213.408C214.997 219.098 213.302 224.707 210.72 229.792" stroke="#90E0EF" stroke-width="2" stroke-linecap="round" stroke-linejoin="round"/>
<path d="M38.16 23.9297C38.16 25.8667 36.5864 27.4809 34.6094 27.4809C32.6324 27.4809 31.0588 25.8667 31.0588 23.9297C31.0588 21.9524 32.6324 20.3785 34.6094 20.3785C36.5864 20.3785 38.16 21.9524 38.16 23.9297Z" fill="white" stroke="#90E0EF" stroke-width="2" stroke-linecap="round" stroke-linejoin="round"/>
<path d="M189.538 270.227C189.538 273.536 186.875 276.199 183.566 276.199C180.258 276.199 177.595 273.536 177.595 270.227C177.595 266.918 180.258 264.255 183.566 264.255C186.875 264.255 189.538 266.918 189.538 270.227Z" fill="white" stroke="#90E0EF" stroke-width="2" stroke-linecap="round" stroke-linejoin="round"/>
<path d="M108.203 27.9248C106.63 27.4809 105.419 26.2702 104.975 24.6964L104.047 21.3874L103.039 24.8175C102.555 26.351 101.344 27.5616 99.7706 28.0055L96.5831 28.8529L99.8916 29.7811C101.425 30.225 102.676 31.4356 103.119 33.0094L104.047 36.3185L104.975 33.0094C105.419 31.4356 106.63 30.225 108.203 29.7811L111.512 28.8529L108.203 27.9248Z" fill="white" stroke="#90E0EF" stroke-width="2" stroke-linecap="round" stroke-linejoin="round"/>
<path d="M138.582 43.8539L145.845 55.5163L197.61 76.0969" stroke="#90E0EF" stroke-width="2" stroke-linecap="round" stroke-linejoin="round"/>
<path d="M146.611 38.8904L153.874 50.5124L197.61 76.097" stroke="#90E0EF" stroke-width="2" stroke-linecap="round" stroke-linejoin="round"/>
<path d="M154.64 33.8863L161.903 45.5083L197.61 76.0968" stroke="#90E0EF" stroke-width="2" stroke-linecap="round" stroke-linejoin="round"/>
<path d="M162.669 28.8823L169.932 40.5447L197.61 76.0967" stroke="#90E0EF" stroke-width="2" stroke-linecap="round" stroke-linejoin="round"/>
<path d="M170.699 23.8784L177.921 35.5408L197.61 76.0968" stroke="#90E0EF" stroke-width="2" stroke-linecap="round" stroke-linejoin="round"/>
<path d="M178.728 18.9149L185.95 30.537L197.61 76.0969" stroke="#90E0EF" stroke-width="2" stroke-linecap="round" stroke-linejoin="round"/>
<path d="M186.757 13.9111L193.979 25.5331L197.61 76.0969" stroke="#90E0EF" stroke-width="2" stroke-linecap="round" stroke-linejoin="round"/>
<path d="M194.786 8.90704L202.008 20.5694L197.61 76.0968" stroke="#90E0EF" stroke-width="2" stroke-linecap="round" stroke-linejoin="round"/>
<path d="M176.347 67.6629C176.347 67.6629 181.108 53.1757 199.426 52.9739" stroke="#90E0EF" stroke-width="2" stroke-linecap="round" stroke-linejoin="round"/>
<path d="M153.39 58.5023C153.39 58.5023 169.246 37.3567 201.363 28.6402" stroke="#90E0EF" stroke-width="2" stroke-linecap="round" stroke-linejoin="round"/>
<path d="M189.178 62.5782C187.403 63.7081 186.838 66.0487 187.967 67.8646L241.065 153.294C242.194 155.07 244.575 155.635 246.35 154.505C248.166 153.416 248.731 151.035 247.601 149.219L194.463 63.7888C193.374 62.0133 190.993 61.4483 189.178 62.5782Z" fill="white" stroke="#90E0EF" stroke-width="2" stroke-linecap="round" stroke-linejoin="round"/>
<path d="M204.631 68.1471C205.801 74.0792 201.968 79.8498 196.037 81.0201C190.106 82.2307 184.336 78.3567 183.126 72.4247C181.956 66.4926 185.789 60.7219 191.76 59.5517C197.691 58.341 203.461 62.215 204.631 68.1471Z" fill="white" stroke="#90E0EF" stroke-width="2" stroke-linecap="round" stroke-linejoin="round"/>
<path d="M193.495 116.411C191.356 115.805 189.662 114.151 189.057 112.012L187.766 107.452L186.353 112.173C185.708 114.312 184.013 115.967 181.875 116.532L177.477 117.702L182.036 119.034C184.175 119.639 185.869 121.294 186.474 123.432L187.766 127.992L189.057 123.432C189.662 121.294 191.356 119.639 193.495 119.034L198.054 117.702L193.495 116.411Z" fill="white" stroke="#90E0EF" stroke-width="2" stroke-linecap="round" stroke-linejoin="round"/>
<path d="M1 9.96714C19.6405 3.95436 39.4914 -2.09877 58.4951 2.78409C64.6682 4.39825 70.7204 7.26341 74.7954 12.1866C78.8705 17.0695 80.6055 24.2525 77.8618 30.0232C75.1586 35.7938 67.4119 39.0222 61.8843 35.8745C55.9935 32.5251 55.1059 23.7279 58.7372 18.0783C62.3684 12.3884 69.1872 9.44253 75.8445 8.35297C90.1678 5.97207 119.944 11.1778 130.112 21.5892" stroke="#90E0EF" stroke-width="2" stroke-linecap="round" stroke-linejoin="round" stroke-dasharray="16 16"/>
<path d="M166.701 186.815C158.874 200.777 160.003 219.26 169.404 232.213C178.805 245.167 195.993 251.947 211.729 248.839" stroke="#90E0EF" stroke-width="2" stroke-linecap="round" stroke-linejoin="round" stroke-dasharray="16 16"/>
</g>
</svg>
