<svg 
  width="20" 
  height="20" 
  viewBox="0 0 20 20" 
  fill="#D9D9D9" 
  xmlns="http://www.w3.org/2000/svg"
>
  <path d="M15.8571 8.22544e-06L13.4573 0.94253L12 2.44253V4.3259C11.9372 4.32311 11.5879 4.31259 11.1429 4.30246V3.89984C11.1429 3.64269 10.9714 3.47126 10.7143 3.47126C10.4571 3.47126 10.2857 3.64269 10.2857 3.89984V4.29409C9.86439 4.29316 9.43713 4.30033 9 4.31753V3.89984C9 3.6427 8.82857 3.47127 8.57143 3.47127C8.31429 3.47127 8.14286 3.6427 8.14286 3.89984V4.35855C7.51071 4.3929 6.94084 4.43686 6.42857 4.48828V3.89983C6.42857 3.64269 6.25714 3.47126 6 3.47126C5.74286 3.47126 5.57143 3.64269 5.57143 3.89983V4.5812C4.97447 4.65484 4.50066 4.72545 4.26311 4.762H4.26144L4.25892 4.76284C4.10599 4.78791 4.00127 4.81146 3.85714 4.8365V4.07143C3.85714 3.81429 3.68571 3.64286 3.42857 3.64286C3.17142 3.64286 3 3.81429 3 4.07143V4.9947C2.00063 5.18919 1.29324 5.35727 0.857143 5.47601V4.58539C0.857143 4.32824 0.685714 4.15681 0.428571 4.15681C0.171429 4.15681 0 4.32824 0 4.58539V9.68555C0.3 9.47127 0.557143 9.25681 0.857143 9.08539V6.36161C1.21284 6.25938 1.9339 6.07563 3 5.86441V7.6716C3 7.75731 3.04269 7.80017 3.04269 7.88589C3.29983 7.75732 3.55714 7.6711 3.85714 7.58539V5.70787C4.04699 5.67426 4.19087 5.64221 4.39788 5.60827C4.62219 5.57375 5.04968 5.51106 5.57143 5.44505V6.98523V7.07145H5.61412C5.87126 6.98574 6.12857 6.90019 6.42857 6.81447V5.34963C6.9359 5.29761 7.50798 5.25257 8.14286 5.21738V6.42859C8.4 6.38573 8.7 6.34254 9 6.29968V5.17468C9.43205 5.15712 9.86106 5.15027 10.2857 5.15124V6.12808C10.4143 6.12808 10.5432 6.08538 10.6289 6.08538H11.1429V5.1596C11.5788 5.16962 11.9586 5.18129 12 5.18304V6.0427C12.5571 6.0427 13.0714 6.04253 13.7143 6.08538V3.89983C13.7143 3.64269 13.8857 3.47126 14.1429 3.47126H17.5714C17.8286 3.47126 18 3.64269 18 3.89983V6.38588C18.5571 6.42874 19.1571 6.51445 19.7143 6.60017V2.44252L18.257 0.985212L15.8571 8.22544e-06ZM15.8571 1.75698C16.1143 1.75698 16.2857 1.92841 16.2857 2.18555C16.2857 2.4427 16.1143 2.61413 15.8571 2.61413C15.6 2.61413 15.4286 2.4427 15.4286 2.18555C15.4286 1.92841 15.6 1.75698 15.8571 1.75698ZM11.743 6.98522C9.94302 7.84236 8.18588 8.82874 6.60017 10.0287C4.28588 11.7002 2.35731 13.6282 0.171596 16.3711L0 16.5427V19.3284H3.81445L3.85714 19.1995C4.11429 18.5138 5.95681 14.9143 8.22824 12.2143C10.1997 9.85714 12.1287 8.14302 13.6716 7.02874C12.943 6.98588 12.343 6.98522 11.743 6.98522ZM15.1289 7.11412C13.6289 7.97126 11.2718 9.89966 8.91462 12.7282C6.77176 15.3425 5.09983 18.5141 4.75698 19.3284H9.42857L9.47126 19.1995C10.2855 16.7566 11.3571 14.4425 12.6429 12.2997C13.9714 10.1568 15.4287 8.35664 16.4573 7.1995C16.0287 7.15664 15.6003 7.15698 15.1289 7.11412ZM9.51395 7.15682C7.92824 7.3711 6.68538 7.71429 5.87109 7.92858C4.54252 8.31429 3.51395 8.61396 2.22824 9.29967C1.54252 9.68539 0.856975 10.1138 0.256975 10.6281L0 10.8424V15.2143C2.05714 12.7286 3.89966 10.9709 6.08538 9.34236C7.15681 8.52808 8.31395 7.84253 9.51395 7.15682ZM17.5287 7.24303C16.543 8.35732 14.8282 10.2854 13.3711 12.7282C12.1282 14.7854 11.0998 17.0141 10.3284 19.3284H14.5287L14.5714 19.243C15 17.3145 15.5568 15.4282 16.1568 13.5854C16.8425 11.4854 17.7002 9.38539 18.6002 7.3711C18.2573 7.32824 17.9145 7.2859 17.5287 7.24303ZM19.4573 7.50001C18.5145 9.55715 17.6571 11.6995 16.9286 13.8424C16.3286 15.6424 15.8145 17.4856 15.3859 19.3284H19.7143V7.50001L19.4573 7.50001Z" />
</svg>
