<svg width="26" height="26" viewBox="0 0 26 26" fill="#D9D9D9" xmlns="http://www.w3.org/2000/svg">
<path d="M14.0716 2.87397C13.5821 2.38446 12.7884 2.38446 12.2989 2.87397L3.52455 11.6483C3.03503 12.1379 3.03503 12.9315 3.52455 13.421C4.01406 13.9106 4.80772 13.9106 5.29724 13.421L5.66437 13.0539V21.3091C5.66437 22.0013 6.22558 22.5625 6.91786 22.5625H9.42482C10.1171 22.5625 10.6783 22.0013 10.6783 21.3091V18.8021C10.6783 18.1098 11.2395 17.5486 11.9318 17.5486H14.4387C15.131 17.5486 15.6922 18.1098 15.6922 18.8021V21.3091C15.6922 22.0013 16.2534 22.5625 16.9457 22.5625H19.4527C20.145 22.5625 20.7062 22.0013 20.7062 21.3091V13.0539L21.0733 13.421C21.5628 13.9106 22.3565 13.9106 22.846 13.421C23.3355 12.9315 23.3355 12.1379 22.846 11.6483L14.0716 2.87397Z" />
</svg>
