<svg width="23" height="22" viewBox="0 0 23 22" fill="#D9D9D9" xmlns="http://www.w3.org/2000/svg">
<path d="M20.5898 7.98993C18.6289 7.98993 17.8273 6.60327 18.8023 4.90243C19.3656 3.9166 19.0298 2.65993 18.0439 2.0966L16.1698 1.0241C15.3139 0.514933 14.2089 0.818266 13.6998 1.6741L13.5806 1.87993C12.6056 3.58077 11.0023 3.58077 10.0164 1.87993L9.89728 1.6741C9.40978 0.818266 8.30478 0.514933 7.44895 1.0241L5.57478 2.0966C4.58895 2.65993 4.25311 3.92743 4.81645 4.91327C5.80228 6.60327 5.00061 7.98993 3.03978 7.98993C1.91311 7.98993 0.981445 8.91077 0.981445 10.0483V11.9549C0.981445 13.0816 1.90228 14.0133 3.03978 14.0133C5.00061 14.0133 5.80228 15.3999 4.81645 17.1008C4.25311 18.0866 4.58895 19.3433 5.57478 19.9066L7.44895 20.9791C8.30478 21.4883 9.40978 21.1849 9.91895 20.3291L10.0381 20.1233C11.0131 18.4224 12.6164 18.4224 13.6023 20.1233L13.7214 20.3291C14.2306 21.1849 15.3356 21.4883 16.1914 20.9791L18.0656 19.9066C19.0514 19.3433 19.3873 18.0758 18.8239 17.1008C17.8381 15.3999 18.6398 14.0133 20.6006 14.0133C21.7273 14.0133 22.6589 13.0924 22.6589 11.9549V10.0483C22.6481 8.9216 21.7273 7.98993 20.5898 7.98993ZM11.8148 14.5224C9.87561 14.5224 8.29395 12.9408 8.29395 11.0016C8.29395 9.06243 9.87561 7.48077 11.8148 7.48077C13.7539 7.48077 15.3356 9.06243 15.3356 11.0016C15.3356 12.9408 13.7539 14.5224 11.8148 14.5224Z" />
</svg>
