<svg width="21" height="20" viewBox="0 0 21 20" fill="#D9D9D9" xmlns="http://www.w3.org/2000/svg">
<path d="M13.6491 1.66675H6.66576C3.63243 1.66675 1.8241 3.47508 1.8241 6.50841V13.4917C1.8241 16.5251 3.63243 18.3334 6.66576 18.3334H13.6491C16.6824 18.3334 18.4908 16.5251 18.4908 13.4917V6.50841C18.4908 3.47508 16.6824 1.66675 13.6491 1.66675ZM8.46576 12.4167L6.59076 14.2917C6.46576 14.4167 6.30743 14.4751 6.1491 14.4751C5.99076 14.4751 5.8241 14.4167 5.70743 14.2917L5.08243 13.6667C4.83243 13.4251 4.83243 13.0251 5.08243 12.7834C5.3241 12.5417 5.71576 12.5417 5.96576 12.7834L6.1491 12.9667L7.58243 11.5334C7.8241 11.2917 8.21576 11.2917 8.46576 11.5334C8.70743 11.7751 8.70743 12.1751 8.46576 12.4167ZM8.46576 6.58341L6.59076 8.45841C6.46576 8.58341 6.30743 8.64175 6.1491 8.64175C5.99076 8.64175 5.8241 8.58341 5.70743 8.45841L5.08243 7.83341C4.83243 7.59175 4.83243 7.19175 5.08243 6.95008C5.3241 6.70841 5.71576 6.70841 5.96576 6.95008L6.1491 7.13341L7.58243 5.70008C7.8241 5.45841 8.21576 5.45841 8.46576 5.70008C8.70743 5.94175 8.70743 6.34175 8.46576 6.58341ZM14.7908 13.8501H10.4158C10.0741 13.8501 9.79076 13.5667 9.79076 13.2251C9.79076 12.8834 10.0741 12.6001 10.4158 12.6001H14.7908C15.1408 12.6001 15.4158 12.8834 15.4158 13.2251C15.4158 13.5667 15.1408 13.8501 14.7908 13.8501ZM14.7908 8.01675H10.4158C10.0741 8.01675 9.79076 7.73341 9.79076 7.39175C9.79076 7.05008 10.0741 6.76675 10.4158 6.76675H14.7908C15.1408 6.76675 15.4158 7.05008 15.4158 7.39175C15.4158 7.73341 15.1408 8.01675 14.7908 8.01675Z" />
</svg>
