<svg 
  width="25" 
  height="25" 
  viewBox="0 0 25 25" 
  fill="#D9D9D9" 
  xmlns="http://www.w3.org/2000/svg"
>
  <path d="M19.338 13.1524C18.5079 12.6781 17.539 12.4064 16.504 12.4064C16.3792 12.4064 16.2536 12.41 16.1289 12.4174C15.7774 11.2604 15.1056 10.2445 14.2147 9.4586C14.3851 7.60999 15.9999 6.16235 17.9685 6.16235C20.0509 6.16235 21.7384 7.78235 21.7384 9.78106C21.7384 11.317 20.7425 12.6273 19.338 13.1524Z" />
  <path d="M17.5611 3.03125H18.3763V5.18333H17.5611V3.03125Z" />
  <path d="M20.0105 5.60368L21.1312 3.73975L21.8373 4.1312L20.7166 5.99518L20.0105 5.60368Z" />
  <path d="M24.262 6.74515L22.3204 7.82102L21.9126 7.14326L23.8542 6.06738L24.262 6.74515Z" />
  <path d="M22.7579 9.38989H25V10.1725L22.7579 10.1721V9.38989Z" />
  <path d="M24.262 12.8172L23.8542 13.495L21.9126 12.4187L22.3204 11.741L24.262 12.8172Z" />
  <path d="M11.6757 6.74489L12.0831 6.06714L14.0247 7.14279L13.6173 7.82054L11.6757 6.74489Z" />
  <path d="M14.1002 4.1312L14.8058 3.73975L15.9269 5.60368L15.2212 5.99518L14.1002 4.1312Z" />
  <path d="M3.9064 14.4688C3.90791 14.4688 3.90942 14.4691 3.91133 14.4691C3.90869 14.4067 3.9064 14.3442 3.9064 14.2814C3.9064 11.2781 6.44219 8.84375 9.57031 8.84375C12.5006 8.84375 14.9112 10.9801 15.2045 13.719C15.6153 13.5971 16.0513 13.5313 16.504 13.5313C18.931 13.5313 20.8984 15.4201 20.8984 17.75C20.8984 20.0799 18.931 21.9687 16.504 21.9687H3.9064C1.74907 21.9687 0 20.2899 0 18.2189C0 16.1475 1.74912 14.4688 3.9064 14.4688Z" />
</svg>
